<svg
    width="511px"
    height="176px"
    viewBox="0 0 511 176"
    version="1.1"
    xmlns="http://www.w3.org/2000/svg"
    xmlns:xlink="http://www.w3.org/1999/xlink"
  >
    <title>italiana_streck_guld_vektor</title>
    <desc>Created with Sketch.</desc>
    <defs></defs>
    <g id="Page-1" stroke="none" stroke-width="1">
      <g id="italiana_streck_guld">
        <path
          class="header-logo"
          d="M47.4950199,95.8236744 L0,95.8236744 L0,91.000761 L7.87350598,91.000761 C9.99005042,91.000761 11.6620955,90.6834672 12.8896912,90.0488701 C14.117287,89.4142731 14.7310757,88.5046977 14.7310757,87.3201165 L14.7310757,12.3111211 C14.7310757,8.6727647 12.614563,6.8536138 8.3814741,6.8536138 L0,6.8536138 L0,2.03070038 L49.0189243,2.03070038 C58.2470581,2.03070038 65.5066967,4.06138046 70.7980578,8.12280154 C76.0894189,12.1842226 78.7350598,17.5993695 78.7350598,24.3684046 C78.7350598,29.6144068 76.936024,34.0776724 73.3378984,37.7583353 C69.7397728,41.4389981 64.3849957,44.3792536 57.2734064,46.5791901 C74.967718,50.3867723 83.814741,58.424881 83.814741,70.6937571 C83.814741,77.9704699 80.5341464,83.9778984 73.9728586,88.716223 C67.4115708,93.4545476 58.5857128,95.8236744 47.4950199,95.8236744 Z M28.065239,11.5496084 L28.065239,45.0561648 L45.8441235,45.0561648 C57.7814342,45.0561648 63.75,38.2026195 63.75,24.4953234 C63.75,17.3032236 61.8028083,12.4803584 57.9083665,10.0265831 C54.6065572,7.91125967 48.5110006,6.8536138 39.6215139,6.8536138 C35.6424104,6.8536138 32.7216229,6.95937838 30.8590637,7.17091073 C28.9965046,7.38244308 28.065239,8.84199438 28.065239,11.5496084 Z M47.3680279,49.8790782 L28.065239,49.8790782 L28.065239,85.92401 C28.065239,89.3085276 30.3510728,91.000761 34.9228088,91.000761 L46.3520916,91.000761 C61.083241,91.000761 68.4487052,84.1472157 68.4487052,70.4399196 C68.4487052,64.0093362 66.586174,58.9749418 62.8610558,55.3365855 C59.1359375,51.6982291 53.9716466,49.8790782 47.3680279,49.8790782 Z M182.48755,6.8536138 L182.48755,2.03070038 L256.777888,2.03070038 L258.682769,33.6334751 L254.36504,33.6334751 C252.671804,24.2414389 250.089659,17.4301994 246.618526,13.1995525 C243.147393,8.96890554 238.279414,6.8536138 232.014442,6.8536138 L213.600598,6.8536138 C210.552774,6.8536138 209.028884,8.41892969 209.028884,11.5496084 L209.028884,44.929246 L217.156375,44.929246 C221.812772,44.929246 225.453174,43.3639301 228.077689,40.2332514 C230.702204,37.1025726 232.014442,32.4066249 232.014442,26.1452674 L236.459163,26.1452674 L236.459163,69.6784069 L232.014442,69.6784069 C232.014442,56.3095626 226.850151,49.6252406 216.521414,49.6252406 L209.028884,49.6252406 L209.028884,86.8124414 C209.028884,89.6046684 211.018406,91.000761 214.99751,91.000761 L229.601594,91.000761 C245.433346,91.000761 254.49202,80.9742781 256.777888,60.9210115 L261.349602,60.9210115 L259.825697,95.8236744 L182.48755,95.8236744 L182.48755,91.000761 L188.837151,91.000761 C193.408887,91.000761 195.694721,89.3085276 195.694721,85.92401 L195.694721,11.5496084 C195.694721,8.41892969 193.83219,6.8536138 190.107072,6.8536138 L182.48755,6.8536138 Z M428.852092,79.5780713 L460.854084,0 L465.044821,0 L498.824701,85.7970912 C500.094628,89.2662217 502.846094,91.000761 507.079183,91.000761 L510,91.000761 L510,95.8236744 L472.537351,95.8236744 L472.537351,91.000761 L475.585159,91.000761 C482.188778,91.000761 485.490538,89.6892801 485.490538,87.066279 C485.490538,86.3047625 485.321217,85.5432575 484.98257,84.781741 L477.236056,64.7285747 L440.02739,64.7285747 L435.709661,76.2781832 C434.947705,78.3088937 434.524403,79.5780688 434.439741,80.0857464 C434.101094,81.3549405 433.931773,82.6241155 433.931773,83.8933096 C433.931773,85.7547943 434.968864,87.4047218 437.043078,88.8431418 C439.117291,90.2815618 441.889923,91.000761 445.361056,91.000761 L448.535857,91.000761 L448.535857,95.8236744 L414.501992,95.8236744 L414.501992,91.000761 L415.517928,91.000761 C421.359591,91.000761 425.804268,87.1932358 428.852092,79.5780713 Z M475.331175,59.9056613 L458.949203,18.1493847 L442.186255,59.9056613 L475.331175,59.9056613 Z"
          id="BREZZA"
        ></path>
        <path
          class="header-logo"
          d="M117.164458,50.8483778 L117.164458,86.5279035 C117.164458,87.7680801 117.843702,93.9984532 122.209401,99.0166588 C126.575101,104.034864 126.197381,103.613305 129.836617,107.402533 C133.475853,111.19176 137.083967,113.324729 144.853359,113.790968 C152.622752,114.257206 156.868162,111.412013 160.921932,108.665186 C162.875139,107.341697 164.163314,106.441745 164.163314,106.845964 C164.163314,108.089118 158.422283,115.000493 154.429327,117.948086 C150.436371,120.895679 146.813711,120.895679 143.651119,120.895679 C140.488527,120.895679 137.4972,119.737624 134.857261,118.842855 C132.217322,117.948086 129.595695,116.431422 128.331929,115.593327 C125.635068,113.804844 123.666284,112.395508 122.855319,111.70332 C117.164458,106.845964 111.893521,102.391546 108.444006,100.36443 C100.638347,95.7774166 93.0208998,95.3330687 88.4642593,95.3330687 C83.9076187,95.3330687 80.3932502,95.7551558 78.2000727,96.8083242 C72.6429185,99.4768812 71.2975134,104.988785 70.192968,104.746335 C69.0884227,104.503885 71.0490175,98.0244849 75.163108,94.2793669 C79.2771985,90.5342489 81.8832893,89.9928217 86.0192896,89.5948406 C88.7766231,89.3295199 92.6817524,89.3295199 97.7346776,89.5948406 C101.713781,89.5948406 103.703303,89.4893563 103.703303,86.5279035 L103.703303,11.518908 C103.703303,9.74203633 103.258835,8.51516712 102.369887,7.8382636 C101.480938,7.16136009 99.9358838,6.82291341 97.7346776,6.82291341 L88.4642593,6.82291341 L88.4642593,2 L136.975215,2 C146.288011,2 153.568815,4.07298591 158.817845,8.21901993 C164.066875,12.3650539 166.691351,17.99173 166.691351,25.0992169 C166.691351,30.8528967 164.744159,35.6757619 160.849717,39.5679571 C158.055879,42.3601841 154.584798,44.3908642 150.436371,45.6600583 C147.473209,46.5908006 142.816881,47.3946114 136.467247,48.071515 C142.30891,49.6791608 146.499605,51.3713942 149.039458,53.1482659 C152.849238,55.771267 155.346723,59.4518747 156.531988,64.1901993 C160.511092,80.2666577 163.982173,88.3047663 166.945335,88.3047663 C168.553909,88.3047663 169.887312,87.1202029 170.945584,84.7510406 C172.003856,82.3818784 172.532984,79.1666349 172.532984,75.1052138 L176.850713,75.1052138 C176.850713,89.5740264 171.517101,96.8083242 160.849717,96.8083242 C156.277981,96.8083242 152.616414,95.1583966 149.864907,91.858492 C147.113399,88.5585874 145.737666,83.8626397 145.737666,77.7705081 C145.737666,68.0400201 144.383098,61.1018632 141.673921,56.9558291 C138.541435,52.2175046 132.911511,49.8483778 124.78398,49.8483778 L117.164458,50.8483778 Z M117,11.5690759 L117,45.202551 L128.175299,45.202551 C136.472153,45.202551 142.504214,43.7006938 146.271663,40.6969345 C150.039112,37.6931752 151.922809,32.8068512 151.922809,26.0378161 C151.922809,17.830361 149.721636,12.4152141 145.319223,9.79221303 C142.186737,7.93072837 136.387493,7 127.921315,7 C124.111535,7 121.910362,7.04230583 121.317729,7.12691877 C118.439229,7.54998347 117,9.03068769 117,11.5690759 Z"
          id="Combined-Shape"
        ></path>
        <g id="Z1" transform="translate(340.000000, 2.000000)">
          <path
            class="header-logo"
            d="M4.18761384,32.5629229 L5.84517304,0 L75.2146169,0 L28.2553887,89.2028416 L36.0637523,89.2028416 C45.244126,89.2028416 52.6818237,86.7072867 57.1020036,81.7889039 C61.0121628,77.3793194 64.1572437,69.6626622 66.5373406,58.6387009 L71,58.6387009 L69.3424408,94 L0.198671566,94 L2.88717551,89.2028416 L15.6470488,89.2028416 L60.0972928,4.83355886 L36.0637523,4.83355886 C27.5634062,4.83355886 21.2307434,6.93232001 17.0655738,11.1299053 C12.9004042,15.3274905 10.0953321,22.4717583 8.65027322,32.5629229 L4.18761384,32.5629229 Z"
            id="Path"
          ></path>
          <path
            class="header-logo"
            d="M4.5,91.5 L52.5,1.5"
            id="Path-19A"
            stroke="#AC9665"
            stroke-width="5"
          ></path>
        </g>
        <g id="Z2" transform="translate(265.000000, 2.000000)">
          <path
            class="header-logo"
            d="M4.18761384,32.5629229 L5.84517304,0 L75.2146169,0 L28.2553887,89.2028416 L36.0637523,89.2028416 C42.1840015,89.2028416 58.01353,89.2028416 83.5523378,89.2028416 L76.3897167,94 L69.3424408,94 L0.198671566,94 L2.88717551,89.2028416 L15.6470488,89.2028416 L60.0972928,4.83355886 L36.0637523,4.83355886 C27.5634062,4.83355886 21.2307434,6.93232001 17.0655738,11.1299053 C12.9004042,15.3274905 10.0953321,22.4717583 8.65027322,32.5629229 L4.18761384,32.5629229 Z"
            id="PathA"
          ></path>
          <path
            class="header-logo"
            d="M4.5,91.5 L52.5,1.5"
            id="Path-19"
            stroke="#AC9665"
            stroke-width="5"
          ></path>
        </g>
        <path
          class="header-logo"
          d="M179,111 L510.074465,111.25"
          id="Path-20"
          stroke="#AC9665"
          stroke-width="3"
        ></path>
        <path
          class="header-logo"
          d="M0,111 L97.5,111"
          id="Path-20A"
          stroke="#AC9665"
          stroke-width="3"
        ></path>
      </g>
    </g>
  </svg>